<svg width="767" height="692" viewBox="0 0 767 692" fill="none" xmlns="http://www.w3.org/2000/svg">
<path d="M431.377 637.267C382.357 565.371 336.605 636.178 336.605 636.178L344.23 650.083C344.544 648.867 344.892 647.682 345.272 646.529C357.693 608.896 404.747 605.012 423.107 644.351C423.718 645.658 424.296 647.013 424.841 648.417L431.377 637.267Z" fill="#F0C16E"/>
<path d="M375.821 567.55C346.301 492.929 279.291 495.126 63.1815 582.8C260.229 525.043 339.243 515.461 375.821 574.086L377.999 589.336L375.821 567.55Z" fill="#D8DDED"/>
<path d="M377.999 589.336L375.821 574.086C339.243 515.461 260.229 525.043 63.1815 582.8C278.234 545.072 356.133 542.592 377.999 589.336Z" fill="#D1D7E8"/>
<path d="M391.071 587.158C429.323 471.036 499.191 469.852 692.817 558.835C503.076 445.87 423.483 428.735 391.071 587.158Z" fill="#D8DDED"/>
<path d="M738.57 589.336V588.246L713.515 572.14L692.817 558.835C499.191 469.852 429.323 471.036 391.071 587.158C438.753 518.021 519.301 522.05 738.57 589.336Z" fill="#D1D7E8"/>
<path fill-rule="evenodd" clip-rule="evenodd" d="M63.1815 582.8C184.518 572.668 253.18 572.003 377.999 589.336C356.133 542.592 278.234 545.072 63.1815 582.8ZM391.071 587.158C487.445 547.048 563.853 547.887 738.57 589.336C519.301 522.05 438.753 518.021 391.071 587.158Z" fill="#E8ECF8"/>
<path fill-rule="evenodd" clip-rule="evenodd" d="M63.1815 582.8L29.4121 588.247V635.089V662.322L336.605 636.178C336.605 636.178 382.357 565.371 431.377 637.267L738.57 665.59V638.355V589.336C563.853 547.887 487.445 547.048 391.071 587.158L384.535 590.973L377.999 589.336C253.18 572.003 184.518 572.668 63.1815 582.8Z" fill="#E8ECF8"/>
<path d="M100.219 528.334L77.3428 530.512L29.4121 588.247L63.1815 582.8L100.219 528.334Z" fill="#F1F5FF"/>
<path d="M738.57 588.246L689.549 523.975L677.567 521.797L713.515 572.14L738.57 588.246Z" fill="#F1F5FF"/>
<path fill-rule="evenodd" clip-rule="evenodd" d="M384.535 590.973L383.446 533.779C383.446 533.779 377.999 378.005 100.219 528.334L63.1815 582.8C279.291 495.126 346.301 492.929 375.821 567.55L377.999 589.336L384.535 590.973Z" fill="#DFE4F4"/>
<path d="M677.567 521.797C677.567 521.797 422.662 309.377 383.446 533.779L384.535 590.973L391.071 587.158C423.483 428.735 503.076 445.87 692.817 558.835L713.515 572.14L677.567 521.797Z" fill="#E1E7FA"/>
<path d="M355.123 669.947L412.858 668.858L424.841 648.417C424.296 647.013 423.718 645.658 423.107 644.351L410.68 665.048L357.302 666.137L345.272 646.529C344.892 647.682 344.544 648.867 344.23 650.083L355.123 669.947Z" fill="#DC7D8B"/>
<path d="M761.446 669.946L738.57 638.355V665.59L761.446 669.946Z" fill="#DF6F80"/>
<path fill-rule="evenodd" clip-rule="evenodd" d="M0 673.214V690.643L330.069 661.231L342.051 689.554H422.662L434.645 662.321L757.088 691.733C757.088 691.733 775.607 688.465 761.446 669.946L738.57 665.59L431.377 637.267L424.841 648.417L412.858 668.858L355.123 669.947L344.23 650.083L336.605 636.178L29.4121 662.322L0 673.214Z" fill="#FA8092"/>
<path d="M29.4121 635.089L0 673.214L29.4121 662.322V635.089Z" fill="#DF6F80"/>
<path d="M404.983 326.448H402.676H343.98H337.443C337.443 326.448 354.356 346.324 374.482 346.056C383.46 345.936 389.804 344.289 395.051 341.869C401.565 338.865 406.321 334.359 411.519 326.448H404.983Z" fill="#D8ADFF"/>
<path fill-rule="evenodd" clip-rule="evenodd" d="M337.42 274.6L337.409 274.264C337.131 265.975 336.951 260.596 324.371 248.016C324.371 248.016 262.152 198.077 294.959 124.921C294.959 124.921 346.019 52.9269 411.519 83.1103C473.854 144.409 452.672 181.552 429.317 222.506C419.661 239.439 409.633 257.023 404.983 277.236L337.443 275.25C337.435 275.031 337.427 274.814 337.42 274.6Z" fill="#FFEA4F"/>
<path d="M421.323 249.105C508.342 151.235 439.713 102.215 439.713 102.215C430.1 93.5366 420.669 87.3265 411.519 83.1103C473.854 144.409 452.672 181.552 429.317 222.506C419.661 239.439 409.633 257.023 404.983 277.236L411.519 277.428C410.43 266.534 421.323 249.105 421.323 249.105Z" fill="#EFDB42"/>
<path fill-rule="evenodd" clip-rule="evenodd" d="M402.676 291.589C403.327 285.945 403.774 282.79 404.983 277.236L337.443 275.25C337.443 275.25 335.266 290.5 341.802 291.589H343.98H402.676Z" fill="#D8ADFF"/>
<path d="M404.983 291.589C411.411 292.375 412.123 288.764 411.519 277.428L404.983 277.236C403.774 282.79 403.327 285.945 402.676 291.589H404.983Z" fill="#C89CEF"/>
<path d="M404.983 326.448V291.589H402.676V296.117V299.385V305.921V308.1V315.725V318.993V326.448H404.983Z" fill="#A174C9"/>
<path d="M402.676 315.725L343.98 314.636V317.904L402.676 318.993V315.725Z" fill="#A174C9"/>
<path d="M402.676 305.921H343.98V308.1H402.676V305.921Z" fill="#A174C9"/>
<path fill-rule="evenodd" clip-rule="evenodd" d="M402.676 291.589H343.98V296.117H402.676V291.589ZM343.98 299.385V305.921H402.676V299.385H343.98ZM343.98 314.636V308.1H402.676V315.725L343.98 314.636ZM343.98 317.904V326.448H402.676V318.993L343.98 317.904Z" fill="#C89CEF"/>
<path d="M402.676 296.117H343.98V299.385H402.676V296.117Z" fill="#A174C9"/>
<path d="M310.082 193.72C301.709 161.368 302.99 145.752 327.512 127.27" stroke="white" stroke-width="8.71468" stroke-linecap="round"/>
<path d="M255.035 275.682L282.776 258.726" stroke="#FFEA4F" stroke-width="10.8934" stroke-linecap="round"/>
<path d="M513.716 280.04L485.974 263.083" stroke="#FFEA4F" stroke-width="10.8934" stroke-linecap="round"/>
<path d="M215.688 161.631L248.18 162.819" stroke="#FFEA4F" stroke-width="10.8934" stroke-linecap="round"/>
<path d="M553.062 165.988L520.57 167.176" stroke="#FFEA4F" stroke-width="10.8934" stroke-linecap="round"/>
<path d="M259.262 42.5495L280.39 67.2621" stroke="#FFEA4F" stroke-width="10.8934" stroke-linecap="round"/>
<path d="M509.488 46.907L488.36 71.6196" stroke="#FFEA4F" stroke-width="10.8934" stroke-linecap="round"/>
<path d="M365.728 6L367.229 38.4786" stroke="#FFEA4F" stroke-width="10.8934" stroke-linecap="round"/>
</svg>
