<svg width="63" height="13" viewBox="0 0 63 13" fill="none" xmlns="http://www.w3.org/2000/svg">
<path d="M1.21133 11.9354C0.4525 11.9354 0.0730845 11.8278 0.0730845 11.6125C0.0730845 11.4349 0.172647 11.2896 0.371773 11.1766C0.732353 10.9721 0.942242 10.7891 1.00144 10.6276C1.06064 10.4608 1.09024 9.68314 1.09024 8.29464C1.09024 6.90076 1.04719 6.08542 0.961079 5.84862C0.880352 5.60644 0.729662 5.40732 0.509009 5.25125C0.288356 5.09517 0.178029 4.9687 0.178029 4.87183C0.178029 4.77496 0.250683 4.68347 0.395991 4.59736C0.735044 4.39823 1.27322 4.29867 2.01053 4.29867C2.23118 4.29867 2.4034 4.37401 2.52718 4.5247C2.57023 4.57852 2.62943 4.69692 2.70478 4.8799C2.7855 5.0575 2.83932 5.1463 2.86623 5.1463C2.96848 5.14092 3.12725 5.06826 3.34252 4.92834C4.0852 4.42783 4.75793 4.17758 5.36069 4.17758H5.37683H5.63516C6.07108 4.17758 6.46395 4.28522 6.81377 4.50049C7.16358 4.71576 7.43267 5.03866 7.62103 5.46921C7.81478 5.89975 7.91165 6.83887 7.91165 8.28657C7.91165 9.72889 7.94125 10.5362 8.00045 10.7084C8.06503 10.8752 8.23994 11.0313 8.52517 11.1766C8.81579 11.3219 8.9611 11.4645 8.9611 11.6044C8.9611 11.8466 8.19688 11.9677 6.66846 11.9677H6.42628C5.94192 11.9677 5.69974 11.852 5.69974 11.6206C5.69974 11.5721 5.75894 11.4564 5.87734 11.2735C5.99574 11.0851 6.07646 10.8779 6.11952 10.6519C6.16257 10.4258 6.1841 9.68314 6.1841 8.42381C6.1841 7.15909 6.10606 6.34644 5.94999 5.98586C5.73472 5.49073 5.37683 5.24317 4.87633 5.24317C4.51036 5.24317 4.15517 5.32928 3.81073 5.5015C3.47168 5.66833 3.22412 5.90782 3.06805 6.21997C2.91736 6.52673 2.84201 7.26672 2.84201 8.43995C2.84201 9.6078 2.8743 10.3155 2.93888 10.5631C3.00346 10.8052 3.0815 11.0017 3.17299 11.1524L3.47168 11.6367C3.47168 11.8466 3.04921 11.9516 2.20427 11.9516L1.71184 11.9354H1.21133ZM15.2336 6.75276V6.50251C15.2336 6.10426 15.0909 5.74637 14.8057 5.42884C14.5205 5.10594 14.1707 4.94448 13.7563 4.94448H13.6029C13.5275 4.95525 13.4764 4.96063 13.4495 4.96063C13.0728 4.96063 12.7149 5.1759 12.3758 5.60644C12.0422 6.03699 11.8753 6.49713 11.8753 6.98687V7.09181C11.8753 7.26403 11.9776 7.35014 12.1821 7.35014C12.2628 7.36629 12.3059 7.37436 12.3113 7.37436L12.4969 7.38243H12.5454L12.6019 7.37436L14.1599 7.28556L14.4505 7.25327C14.9725 7.25327 15.2336 7.08643 15.2336 6.75276ZM11.8753 8.89202C11.8753 9.50554 12.1067 10.0195 12.5696 10.4339C13.0324 10.8483 13.619 11.0555 14.3294 11.0555C14.6147 11.0555 14.873 11.0151 15.1044 10.9344C15.3412 10.8483 15.5968 10.746 15.8713 10.6276C16.1512 10.5092 16.3261 10.45 16.396 10.45C16.6113 10.45 16.7189 10.5658 16.7189 10.7972C16.7189 11.1093 16.3207 11.443 15.5242 11.7982C15.0075 12.0296 14.4532 12.1453 13.8612 12.1453H13.6836C12.6718 12.1453 11.8323 11.8385 11.1649 11.225C10.8044 10.8914 10.5245 10.4662 10.3254 9.94954C10.1263 9.42751 10.0267 8.8678 10.0267 8.27042L10.0348 8.08475V7.89908C10.0348 7.38243 10.1532 6.87385 10.39 6.37335C10.6321 5.87284 10.9201 5.46113 11.2537 5.13823C11.9588 4.46012 12.7956 4.11838 13.7643 4.113C15.2282 4.113 16.2023 4.68347 16.6866 5.8244C16.8373 6.18498 16.9127 6.51596 16.9127 6.81734V6.9788C16.9127 7.35014 16.7593 7.60039 16.4525 7.72956C16.1458 7.85334 15.4219 7.95559 14.281 8.03632C13.1401 8.11704 12.5211 8.17086 12.4243 8.19777C12.0583 8.28926 11.8753 8.52068 11.8753 8.89202ZM20.4485 6.02622V6.46215C20.4485 7.86679 20.758 9.04002 21.3769 9.98183C21.6567 10.407 22.0038 10.7434 22.4182 10.9909C22.838 11.2385 23.2686 11.3623 23.7099 11.3623H23.839C24.797 11.3623 25.5639 10.9156 26.1397 10.0222C26.3658 9.67776 26.5595 9.21762 26.721 8.64177C26.8824 8.06592 26.9632 7.45239 26.9632 6.8012V6.3572C26.9632 5.64142 26.8717 4.96601 26.6887 4.33096C25.7738 2.77024 24.7647 1.81498 23.6614 1.46516C23.2632 1.47054 22.8649 1.56472 22.4667 1.7477C21.6379 2.13519 21.0567 2.91555 20.723 4.08878C20.54 4.73998 20.4485 5.38579 20.4485 6.02622ZM29.1751 6.10695V6.48636C29.1751 7.21829 29.0459 7.94752 28.7876 8.67406C28.2548 10.1702 27.3076 11.2089 25.946 11.7901C25.2518 12.0861 24.5548 12.2341 23.8552 12.2341H23.4758C22.7815 12.2341 22.1303 12.0942 21.5222 11.8143C20.9194 11.5345 20.3974 11.1685 19.9561 10.7164C19.5148 10.259 19.1569 9.65892 18.8824 8.91624C18.6133 8.17355 18.4788 7.43625 18.4788 6.70433V6.32491C18.4788 5.57684 18.6079 4.84223 18.8663 4.12107C19.1246 3.39453 19.4879 2.77293 19.9561 2.25628C20.4243 1.73963 20.9921 1.336 21.6594 1.04538C22.3268 0.754766 23.0183 0.609458 23.7341 0.609458H23.9198C25.4536 0.609458 26.686 1.09113 27.617 2.05447C28.0799 2.53345 28.4539 3.14159 28.7391 3.87889C29.0298 4.61619 29.1751 5.35888 29.1751 6.10695ZM34.8259 11.6852C34.8259 11.8951 34.3389 12 33.3648 12H32.5091L32.17 11.9839L31.6615 11.9758C31.091 11.9758 30.8058 11.8735 30.8058 11.669C30.8058 11.5237 30.9322 11.3703 31.1852 11.2089C31.4435 11.042 31.6157 10.8295 31.7018 10.5711C31.7933 10.3074 31.8391 9.53514 31.8391 8.25428C31.8391 6.97342 31.796 6.19575 31.7099 5.92128C31.6292 5.64681 31.5 5.45037 31.3224 5.33197C31.0049 5.12208 30.8461 4.9687 30.8461 4.87183C30.8461 4.77496 30.9026 4.68885 31.0156 4.6135C31.3493 4.38747 31.9144 4.27445 32.7109 4.27445H32.8643C33.171 4.27445 33.389 4.43052 33.5182 4.74267C33.6473 5.04943 33.7523 5.20281 33.833 5.20281C33.9137 5.20281 34.051 5.12746 34.2447 4.97677C34.4438 4.82608 34.6806 4.67539 34.9551 4.5247C35.235 4.37401 35.5444 4.29867 35.8835 4.29867C36.2225 4.29867 36.4808 4.38747 36.6584 4.56507C36.8414 4.73728 36.9329 4.96063 36.9329 5.2351C36.9275 5.51495 36.8549 5.72484 36.7149 5.86477C36.575 6.00469 36.4243 6.07466 36.2629 6.07466C36.1014 6.07466 35.8888 6.01008 35.6251 5.88091C35.3614 5.74637 35.1408 5.6791 34.9632 5.6791C34.7856 5.6791 34.5918 5.75444 34.3819 5.90513C34.1721 6.05044 33.9918 6.31415 33.8411 6.69625C33.6958 7.07298 33.6231 7.72148 33.6231 8.64177C33.6231 9.55667 33.6877 10.1487 33.8169 10.4178C33.946 10.6815 34.1451 10.9236 34.4142 11.1443C34.6887 11.3649 34.8259 11.5452 34.8259 11.6852ZM43.0036 6.75276V6.50251C43.0036 6.10426 42.8609 5.74637 42.5757 5.42884C42.2905 5.10594 41.9407 4.94448 41.5263 4.94448H41.3729C41.2975 4.95525 41.2464 4.96063 41.2195 4.96063C40.8428 4.96063 40.4849 5.1759 40.1458 5.60644C39.8122 6.03699 39.6453 6.49713 39.6453 6.98687V7.09181C39.6453 7.26403 39.7476 7.35014 39.9521 7.35014C40.0328 7.36629 40.0759 7.37436 40.0813 7.37436L40.2669 7.38243H40.3154L40.3719 7.37436L41.9299 7.28556L42.2205 7.25327C42.7425 7.25327 43.0036 7.08643 43.0036 6.75276ZM39.6453 8.89202C39.6453 9.50554 39.8767 10.0195 40.3396 10.4339C40.8024 10.8483 41.389 11.0555 42.0994 11.0555C42.3847 11.0555 42.643 11.0151 42.8744 10.9344C43.1112 10.8483 43.3668 10.746 43.6413 10.6276C43.9212 10.5092 44.0961 10.45 44.166 10.45C44.3813 10.45 44.4889 10.5658 44.4889 10.7972C44.4889 11.1093 44.0907 11.443 43.2942 11.7982C42.7775 12.0296 42.2232 12.1453 41.6312 12.1453H41.4536C40.4418 12.1453 39.6023 11.8385 38.9349 11.225C38.5744 10.8914 38.2945 10.4662 38.0954 9.94954C37.8962 9.42751 37.7967 8.8678 37.7967 8.27042L37.8048 8.08475V7.89908C37.8048 7.38243 37.9232 6.87385 38.16 6.37335C38.4021 5.87284 38.6901 5.46113 39.0237 5.13823C39.7287 4.46012 40.5656 4.11838 41.5343 4.113C42.9982 4.113 43.9723 4.68347 44.4566 5.8244C44.6073 6.18498 44.6827 6.51596 44.6827 6.81734V6.9788C44.6827 7.35014 44.5293 7.60039 44.2225 7.72956C43.9158 7.85334 43.1919 7.95559 42.051 8.03632C40.91 8.11704 40.2911 8.17086 40.1943 8.19777C39.8283 8.28926 39.6453 8.52068 39.6453 8.89202ZM50.3981 8.26235H50.2609C49.5559 8.26235 48.9666 8.42111 48.493 8.73864C48.0248 9.05078 47.7907 9.44096 47.7907 9.90918V10.0706C47.7907 10.3451 47.8741 10.5927 48.0409 10.8133C48.2131 11.0286 48.4338 11.1362 48.7029 11.1362L48.7997 11.1524H49.0419C49.6016 11.1524 50.0591 10.9236 50.4143 10.4662C50.5703 10.2671 50.6484 9.85805 50.6484 9.23915C50.6484 9.19071 50.6484 9.14227 50.6484 9.09384L50.6565 8.90009V8.70635C50.6565 8.41035 50.5703 8.26235 50.3981 8.26235ZM46.4748 5.65488C46.4748 5.25663 46.7896 4.90143 47.4193 4.58929C48.0544 4.27176 48.7109 4.113 49.389 4.113C49.4106 4.113 49.4321 4.113 49.4536 4.113C50.0994 4.113 50.6161 4.19103 51.0036 4.34711C51.7893 4.65925 52.2387 5.32121 52.3517 6.33298C52.3625 6.43524 52.3679 7.11334 52.3679 8.3673C52.3679 9.61587 52.4002 10.3478 52.4647 10.5631C52.5347 10.7783 52.7177 10.9371 53.0137 11.0394C53.3151 11.1416 53.4657 11.2385 53.4657 11.33C53.4657 11.5237 53.3689 11.6717 53.1751 11.774C52.7876 11.9785 52.4055 12.0807 52.0288 12.0807C51.6575 12.0807 51.3803 11.9946 51.1973 11.8224C50.869 11.5156 50.6941 11.3623 50.6726 11.3623C50.6511 11.3623 50.347 11.4995 49.7604 11.774C49.1738 12.0431 48.6598 12.1776 48.2185 12.1776C47.5565 12.1776 47.0372 11.9946 46.6605 11.6287C46.2838 11.2627 46.0954 10.8187 46.0954 10.2967V10.0948C46.0954 9.53514 46.3376 9.04271 46.8219 8.61755C47.3063 8.19239 48.1781 7.86141 49.4375 7.62461C49.8949 7.5385 50.1829 7.45778 50.3013 7.38243C50.5381 7.23174 50.6565 6.92498 50.6565 6.46215C50.6565 5.99931 50.5327 5.64412 50.2851 5.39655C50.0376 5.14899 49.7066 5.02521 49.2922 5.02521C48.8778 5.02521 48.4768 5.26739 48.0893 5.75175C47.7072 6.23073 47.3574 6.47022 47.0399 6.47022C46.6632 6.47022 46.4748 6.19844 46.4748 5.65488ZM60.0934 6.47022C60.0934 6.03429 59.9535 5.68717 59.6736 5.42884C59.3938 5.16514 59.0224 5.03328 58.5596 5.03328H58.4062C58.164 5.03328 57.9057 5.10594 57.6312 5.25125C57.3568 5.39655 57.1307 5.60644 56.9531 5.88091C56.5979 6.42986 56.4203 7.11065 56.4203 7.9233V8.39959C56.4203 9.20686 56.6006 9.8742 56.9612 10.4016C57.3272 10.929 57.7712 11.1927 58.2932 11.1927H58.5273C58.9848 11.1927 59.3588 11.0367 59.6494 10.7245C59.94 10.4124 60.0853 10.0141 60.0853 9.52976L60.1015 9.36024V9.19071L60.1176 8.77093C60.1176 8.51261 60.1176 8.25428 60.1176 7.99595L60.1257 7.73763V7.48738L60.1176 7.39858V6.97072L60.1096 6.89V6.72047C60.0988 6.61284 60.0934 6.52942 60.0934 6.47022ZM60.1338 4.18565C60.1822 4.06725 60.2064 3.71206 60.2064 3.12006C60.2064 2.52806 60.1607 2.09483 60.0692 1.82036C59.9777 1.54051 59.8162 1.31178 59.5848 1.13418C59.3588 0.951201 59.2458 0.813966 59.2458 0.722475C59.2458 0.630985 59.3077 0.550258 59.4315 0.480295C59.7651 0.286551 60.3087 0.189679 61.0621 0.189679H61.2559C61.6326 0.189679 61.8479 0.391496 61.9017 0.795129C61.9178 0.91891 61.9259 2.4581 61.9259 5.4127C61.9259 8.36192 61.9474 9.98183 61.9905 10.2724C62.0335 10.5577 62.1358 10.781 62.2973 10.9425C62.3295 10.9748 62.4318 11.0582 62.604 11.1927C62.7816 11.3219 62.8704 11.4376 62.8704 11.5399C62.8704 11.6367 62.7951 11.7255 62.6444 11.8063C62.3376 11.9731 61.8371 12.0565 61.1429 12.0565C60.9007 12.0565 60.7069 11.9839 60.5616 11.8385C60.2764 11.5533 60.1203 11.4107 60.0934 11.4107C60.0719 11.4107 59.9508 11.4726 59.7301 11.5964C59.5095 11.7201 59.2431 11.8466 58.9309 11.9758C58.6242 12.0996 58.2421 12.1615 57.7846 12.1615C57.3272 12.1615 56.9047 12.0619 56.5172 11.8628C55.8014 11.4968 55.2982 10.8914 55.0076 10.0464C54.8354 9.54053 54.7493 8.9862 54.7493 8.38344C54.7493 7.16716 55.0964 6.17691 55.7907 5.4127C56.4903 4.64849 57.4536 4.26638 58.6807 4.26638L59.7382 4.36325C59.9535 4.36325 60.0853 4.30405 60.1338 4.18565Z" fill="white"/>
</svg>
